<svg id="SvgjsSvg1006" width="935.5999908447266" height="497" xmlns="http://www.w3.org/2000/svg" version="1.1" xmlns:xlink="http://www.w3.org/1999/xlink" xmlns:svgjs="http://svgjs.com/svgjs"><defs id="SvgjsDefs1007"><pattern id="SvgjsPattern1016" x="0" y="0" width="78" height="65" patternUnits="userSpaceOnUse"><image id="SvgjsImage1017" xlink:href="https://www.processon.com/assets/images/designer/network/pc.svg" width="78" height="65" preserveAspectRatio="none" crossOrigin="anonymous" x="0" y="0"></image></pattern><pattern id="SvgjsPattern1022" x="0" y="0" width="78" height="47" patternUnits="userSpaceOnUse"><image id="SvgjsImage1023" xlink:href="https://www.processon.com/assets/images/designer/network/macbook.svg" width="78" height="47" preserveAspectRatio="none" crossOrigin="anonymous" x="0" y="0"></image></pattern><pattern id="SvgjsPattern1028" x="0" y="0" width="78" height="47" patternUnits="userSpaceOnUse"><image id="SvgjsImage1029" xlink:href="https://www.processon.com/assets/images/designer/network/notebook.svg" width="78" height="47" preserveAspectRatio="none" crossOrigin="anonymous" x="0" y="0"></image></pattern><pattern id="SvgjsPattern1034" x="0" y="0" width="48" height="155" patternUnits="userSpaceOnUse"><image id="SvgjsImage1035" xlink:href="https://www.processon.com/assets/images/designer/network/server.svg" width="48" height="155" preserveAspectRatio="none" crossOrigin="anonymous" x="0" y="0"></image></pattern><marker id="SvgjsMarker1040" markerWidth="16" markerHeight="12" refX="16" refY="6" viewBox="0 0 16 12" orient="auto" markerUnits="userSpaceOnUse" stroke-dasharray="0,0"><path id="SvgjsPath1041" d="M0,2 L14,6 L0,11 L0,2" fill="#323232" stroke="#323232" stroke-width="2"></path></marker><marker id="SvgjsMarker1048" markerWidth="16" markerHeight="12" refX="16" refY="6" viewBox="0 0 16 12" orient="auto" markerUnits="userSpaceOnUse" stroke-dasharray="0,0"><path id="SvgjsPath1049" d="M0,2 L14,6 L0,11 L0,2" fill="#323232" stroke="#323232" stroke-width="2"></path></marker><marker id="SvgjsMarker1056" markerWidth="16" markerHeight="12" refX="16" refY="6" viewBox="0 0 16 12" orient="auto" markerUnits="userSpaceOnUse" stroke-dasharray="0,0"><path id="SvgjsPath1057" d="M0,2 L14,6 L0,11 L0,2" fill="#323232" stroke="#323232" stroke-width="2"></path></marker><marker id="SvgjsMarker1084" markerWidth="16" markerHeight="12" refX="16" refY="6" viewBox="0 0 16 12" orient="auto" markerUnits="userSpaceOnUse" stroke-dasharray="0,0"><path id="SvgjsPath1085" d="M0,2 L14,6 L0,11 L0,2" fill="#ff0000" stroke="#ff0000" stroke-width="2"></path></marker><marker id="SvgjsMarker1124" markerWidth="16" markerHeight="12" refX="16" refY="6" viewBox="0 0 16 12" orient="auto" markerUnits="userSpaceOnUse" stroke-dasharray="0,0"><path id="SvgjsPath1125" d="M0,2 L14,6 L0,11 L0,2" fill="#80ff00" stroke="#80ff00" stroke-width="2"></path></marker><marker id="SvgjsMarker1132" markerWidth="16" markerHeight="12" refX="16" refY="6" viewBox="0 0 16 12" orient="auto" markerUnits="userSpaceOnUse" stroke-dasharray="0,0"><path id="SvgjsPath1133" d="M0,2 L14,6 L0,11 L0,2" fill="#ffff00" stroke="#ffff00" stroke-width="2"></path></marker><marker id="SvgjsMarker1140" markerWidth="16" markerHeight="12" refX="16" refY="6" viewBox="0 0 16 12" orient="auto" markerUnits="userSpaceOnUse" stroke-dasharray="0,0"><path id="SvgjsPath1141" d="M0,2 L14,6 L0,11 L0,2" fill="#ffff00" stroke="#ffff00" stroke-width="2"></path></marker><marker id="SvgjsMarker1148" markerWidth="16" markerHeight="12" refX="16" refY="6" viewBox="0 0 16 12" orient="auto" markerUnits="userSpaceOnUse" stroke-dasharray="0,0"><path id="SvgjsPath1149" d="M0,2 L14,6 L0,11 L0,2" fill="#80ff00" stroke="#80ff00" stroke-width="2"></path></marker><marker id="SvgjsMarker1156" markerWidth="16" markerHeight="12" refX="16" refY="6" viewBox="0 0 16 12" orient="auto" markerUnits="userSpaceOnUse" stroke-dasharray="0,0"><path id="SvgjsPath1157" d="M0,2 L14,6 L0,11 L0,2" fill="#00ffff" stroke="#00ffff" stroke-width="2"></path></marker><marker id="SvgjsMarker1164" markerWidth="16" markerHeight="12" refX="16" refY="6" viewBox="0 0 16 12" orient="auto" markerUnits="userSpaceOnUse" stroke-dasharray="0,0"><path id="SvgjsPath1165" d="M0,2 L14,6 L0,11 L0,2" fill="#00ffff" stroke="#00ffff" stroke-width="2"></path></marker><marker id="SvgjsMarker1172" markerWidth="16" markerHeight="12" refX="16" refY="6" viewBox="0 0 16 12" orient="auto" markerUnits="userSpaceOnUse" stroke-dasharray="0,0"><path id="SvgjsPath1173" d="M0,2 L14,6 L0,11 L0,2" fill="#ff00ff" stroke="#ff00ff" stroke-width="2"></path></marker><marker id="SvgjsMarker1180" markerWidth="16" markerHeight="12" refX="16" refY="6" viewBox="0 0 16 12" orient="auto" markerUnits="userSpaceOnUse" stroke-dasharray="0,0"><path id="SvgjsPath1181" d="M0,2 L14,6 L0,11 L0,2" fill="#ff3333" stroke="#ff3333" stroke-width="2"></path></marker><marker id="SvgjsMarker1188" markerWidth="16" markerHeight="12" refX="16" refY="6" viewBox="0 0 16 12" orient="auto" markerUnits="userSpaceOnUse" stroke-dasharray="0,0"><path id="SvgjsPath1189" d="M0,2 L14,6 L0,11 L0,2" fill="#ff00ff" stroke="#ff00ff" stroke-width="2"></path></marker></defs><g id="SvgjsG1008" transform="translate(287.59999084472656,24.999998092651367)"><path id="SvgjsPath1009" d="M 0 4Q 0 0 4 0L 619 0Q 623 0 623 4L 623 443Q 623 447 619 447L 4 447Q 0 447 0 443Z" stroke="rgba(50,50,50,1)" stroke-width="2" fill-opacity="1" fill="#ffffff"></path><g id="SvgjsG1010"><text id="SvgjsText1011" font-family="微软雅黑" text-anchor="middle" font-size="13px" width="613px" fill="#323232" font-weight="400" align="middle" anchor="middle" family="微软雅黑" size="13px" weight="400" font-style="" opacity="1" y="22.978571428571428" transform="rotate(0)"><tspan id="SvgjsTspan1012" dy="16" x="311.5"><tspan id="SvgjsTspan1013" style="text-decoration:;font-weight: bold;fill: rgb(153, 0, 0);">springmvc</tspan></tspan></text></g></g><g id="SvgjsG1014" transform="translate(25,107.49999809265137)"><path id="SvgjsPath1015" d="M 0 0L 78 0L 78 65L 0 65Z" stroke="none" fill="url(#SvgjsPattern1016)"></path><g id="SvgjsG1018"><text id="SvgjsText1019" font-family="微软雅黑" text-anchor="middle" font-size="13px" width="118px" fill="#323232" font-weight="400" align="middle" anchor="middle" family="微软雅黑" size="13px" weight="400" font-style="" opacity="1" y="70.05" transform="rotate(0)"></text></g></g><g id="SvgjsG1020" transform="translate(25,203.49999809265137)"><path id="SvgjsPath1021" d="M 0 0L 78 0L 78 47L 0 47Z" stroke="none" fill="url(#SvgjsPattern1022)"></path><g id="SvgjsG1024"><text id="SvgjsText1025" font-family="微软雅黑" text-anchor="middle" font-size="13px" width="118px" fill="#323232" font-weight="400" align="middle" anchor="middle" family="微软雅黑" size="13px" weight="400" font-style="" opacity="1" y="52.05" transform="rotate(0)"></text></g></g><g id="SvgjsG1026" transform="translate(25,301.99999809265137)"><path id="SvgjsPath1027" d="M 0 0L 78 0L 78 47L 0 47Z" stroke="none" fill="url(#SvgjsPattern1028)"></path><g id="SvgjsG1030"><text id="SvgjsText1031" font-family="微软雅黑" text-anchor="middle" font-size="13px" width="118px" fill="#323232" font-weight="400" align="middle" anchor="middle" family="微软雅黑" size="13px" weight="400" font-style="" opacity="1" y="52.05" transform="rotate(0)"></text></g></g><g id="SvgjsG1032" transform="translate(175.59999084472656,140.89999961853027)"><path id="SvgjsPath1033" d="M 0 0L 48 0L 48 155L 0 155Z" stroke="none" fill="url(#SvgjsPattern1034)"></path><g id="SvgjsG1036"><text id="SvgjsText1037" font-family="微软雅黑" text-anchor="middle" font-size="13px" width="88px" fill="#323232" font-weight="400" align="middle" anchor="middle" family="微软雅黑" size="13px" weight="400" font-style="" opacity="1" y="160.05" transform="rotate(0)"></text></g></g><g id="SvgjsG1038"><path id="SvgjsPath1039" d="M103 139.99999809265137L139.29999542236328 139.99999809265137L139.29999542236328 171.89999961853027L175.59999084472656 171.89999961853027" stroke="#323232" stroke-width="2" fill="none" marker-end="url(#SvgjsMarker1040)"></path><rect id="SvgjsRect1042" width="26" height="16" x="126.29999542236328" y="147.94999885559082" fill="#ffffff"></rect><text id="SvgjsText1043" font-family="微软雅黑" text-anchor="middle" font-size="13px" width="26px" fill="#323232" font-weight="400" align="top" anchor="middle" family="微软雅黑" size="13px" weight="400" font-style="" opacity="1" y="145.99999885559083" transform="rotate(0)"><tspan id="SvgjsTspan1044" dy="16" x="139.29999542236328"><tspan id="SvgjsTspan1045" style="text-decoration:;">请求</tspan></tspan></text></g><g id="SvgjsG1046"><path id="SvgjsPath1047" d="M103 226.99999809265137L139.29999542236328 226.99999809265137L139.29999542236328 218.39999961853027L175.59999084472656 218.39999961853027" stroke="#323232" stroke-width="2" fill="none" marker-end="url(#SvgjsMarker1048)"></path><rect id="SvgjsRect1050" width="26" height="16" x="126.29999542236328" y="214.69999885559082" fill="#ffffff"></rect><text id="SvgjsText1051" font-family="微软雅黑" text-anchor="middle" font-size="13px" width="26px" fill="#323232" font-weight="400" align="top" anchor="middle" family="微软雅黑" size="13px" weight="400" font-style="" opacity="1" y="212.74999885559083" transform="rotate(0)"><tspan id="SvgjsTspan1052" dy="16" x="139.29999542236328"><tspan id="SvgjsTspan1053" style="text-decoration:;">请求</tspan></tspan></text></g><g id="SvgjsG1054"><path id="SvgjsPath1055" d="M103 325.49999809265137L139.29999542236328 325.49999809265137L139.29999542236328 256.1812496185303L175.59999084472656 256.1812496185303" stroke="#323232" stroke-width="2" fill="none" marker-end="url(#SvgjsMarker1056)"></path><rect id="SvgjsRect1058" width="26" height="16" x="126.29999542236328" y="282.8406238555908" fill="#ffffff"></rect><text id="SvgjsText1059" font-family="微软雅黑" text-anchor="middle" font-size="13px" width="26px" fill="#323232" font-weight="400" align="top" anchor="middle" family="微软雅黑" size="13px" weight="400" font-style="" opacity="1" y="280.89062385559083" transform="rotate(0)"><tspan id="SvgjsTspan1060" dy="16" x="139.29999542236328"><tspan id="SvgjsTspan1061" style="text-decoration:;">请求</tspan></tspan></text></g><g id="SvgjsG1062" transform="translate(223.59999084472656,201.89999961853027)"><path id="SvgjsPath1063" d="M 0 10.89L 47.5 10.89L 47.5 0L 64 16.5L 47.5 33L 47.5 22.110000000000003L 0 22.110000000000003L 0 10.89Z" stroke="rgba(50,50,50,1)" stroke-width="2" fill-opacity="1" fill="#ffffff"></path><g id="SvgjsG1064"><text id="SvgjsText1065" font-family="微软雅黑" text-anchor="middle" font-size="13px" width="64px" fill="#323232" font-weight="400" align="middle" anchor="middle" family="微软雅黑" size="13px" weight="400" font-style="" opacity="1" y="6.55" transform="rotate(0)"></text></g></g><g id="SvgjsG1066" transform="translate(306.59999084472656,101.99999809265137)"><path id="SvgjsPath1067" d="M 0 4Q 0 0 4 0L 208 0Q 212 0 212 4L 212 66.5Q 212 70.5 208 70.5L 4 70.5Q 0 70.5 0 66.5Z" stroke="rgba(50,50,50,1)" stroke-width="2" fill-opacity="1" fill="#ffcccc"></path><g id="SvgjsG1068"><text id="SvgjsText1069" font-family="微软雅黑" text-anchor="middle" font-size="13px" width="192px" fill="#323232" font-weight="400" align="middle" anchor="middle" family="微软雅黑" size="13px" weight="400" font-style="" opacity="1" y="17.3" transform="rotate(0)"><tspan id="SvgjsTspan1070" dy="16" x="106"><tspan id="SvgjsTspan1071" style="text-decoration:;">DispatcherServlet</tspan></tspan><tspan id="SvgjsTspan1072" dy="16" x="106"><tspan id="SvgjsTspan1073" style="text-decoration:;">中央调度器</tspan></tspan></text></g></g><g id="SvgjsG1074" transform="translate(708.5999908447266,110.04999732971191)"><path id="SvgjsPath1075" d="M 0 4Q 0 0 4 0L 170 0Q 174 0 174 4L 174 50.400001525878906Q 174 54.400001525878906 170 54.400001525878906L 4 54.400001525878906Q 0 54.400001525878906 0 50.400001525878906Z" stroke="rgba(50,50,50,1)" stroke-width="2" fill-opacity="1" fill="#ffe6cc"></path><g id="SvgjsG1076"><text id="SvgjsText1077" font-family="微软雅黑" text-anchor="middle" font-size="13px" width="154px" fill="#323232" font-weight="400" align="middle" anchor="middle" family="微软雅黑" size="13px" weight="400" font-style="" opacity="1" y="9.250000762939454" transform="rotate(0)"><tspan id="SvgjsTspan1078" dy="16" x="87"><tspan id="SvgjsTspan1079" style="text-decoration:;">HandlerMapping</tspan></tspan><tspan id="SvgjsTspan1080" dy="16" x="87"><tspan id="SvgjsTspan1081" style="text-decoration:;">处理器映射器</tspan></tspan></text></g></g><g id="SvgjsG1082"><path id="SvgjsPath1083" d="M709.6776732967509 151.89329446887643L614.1388320707388 151.89329446887643L614.1388320707388 151.12499809265137L518.5999908447266 151.12499809265137" stroke="#ff0000" stroke-width="2" fill="none" marker-end="url(#SvgjsMarker1084)"></path><rect id="SvgjsRect1086" width="78" height="16" x="575.1388320707388" y="143.50914628076384" fill="#ffffff"></rect><text id="SvgjsText1087" font-family="微软雅黑" text-anchor="middle" font-size="13px" width="78px" fill="#323232" font-weight="400" align="top" anchor="middle" family="微软雅黑" size="13px" weight="400" font-style="" opacity="1" y="141.55914628076385" transform="rotate(0)"><tspan id="SvgjsTspan1088" dy="16" x="614.1388320707388"><tspan id="SvgjsTspan1089" style="text-decoration:;">③处理执行链</tspan></tspan></text></g><g id="SvgjsG1090" transform="translate(708.5999908447266,234.89999961853027)"><path id="SvgjsPath1091" d="M 0 4Q 0 0 4 0L 170 0Q 174 0 174 4L 174 47.099998474121094Q 174 51.099998474121094 170 51.099998474121094L 4 51.099998474121094Q 0 51.099998474121094 0 47.099998474121094Z" stroke="rgba(50,50,50,1)" stroke-width="2" fill-opacity="1" fill="#ffe6cc"></path><g id="SvgjsG1092"><text id="SvgjsText1093" font-family="微软雅黑" text-anchor="middle" font-size="13px" width="154px" fill="#323232" font-weight="400" align="middle" anchor="middle" family="微软雅黑" size="13px" weight="400" font-style="" opacity="1" y="7.599999237060547" transform="rotate(0)"><tspan id="SvgjsTspan1094" dy="16" x="87"><tspan id="SvgjsTspan1095" style="text-decoration:;">HandlerAdapter</tspan></tspan><tspan id="SvgjsTspan1096" dy="16" x="87"><tspan id="SvgjsTspan1097" style="text-decoration:;">处理器适配器</tspan></tspan></text></g></g><g id="SvgjsG1098" transform="translate(708.5999908447266,378.8999996185303)"><path id="SvgjsPath1099" d="M 0 4Q 0 0 4 0L 170 0Q 174 0 174 4L 174 47.099998474121094Q 174 51.099998474121094 170 51.099998474121094L 4 51.099998474121094Q 0 51.099998474121094 0 47.099998474121094Z" stroke="rgba(50,50,50,1)" stroke-width="2" fill-opacity="1" fill="#ffe6cc"></path><g id="SvgjsG1100"><text id="SvgjsText1101" font-family="微软雅黑" text-anchor="middle" font-size="13px" width="154px" fill="#323232" font-weight="400" align="middle" anchor="middle" family="微软雅黑" size="13px" weight="400" font-style="" opacity="1" y="7.599999237060547" transform="rotate(0)"><tspan id="SvgjsTspan1102" dy="16" x="87"><tspan id="SvgjsTspan1103" style="text-decoration:;">Controller</tspan></tspan><tspan id="SvgjsTspan1104" dy="16" x="87"><tspan id="SvgjsTspan1105" style="text-decoration:;">处理器</tspan></tspan></text></g></g><g id="SvgjsG1106" transform="translate(474.59999084472656,383.8999996185303)"><path id="SvgjsPath1107" d="M 0 4Q 0 0 4 0L 135 0Q 139 0 139 4L 139 42.099998474121094Q 139 46.099998474121094 135 46.099998474121094L 4 46.099998474121094Q 0 46.099998474121094 0 42.099998474121094Z" stroke="rgba(50,50,50,1)" stroke-width="2" fill-opacity="1" fill="#ffe6cc"></path><g id="SvgjsG1108"><text id="SvgjsText1109" font-family="微软雅黑" text-anchor="middle" font-size="13px" width="119px" fill="#323232" font-weight="400" align="middle" anchor="middle" family="微软雅黑" size="13px" weight="400" font-style="" opacity="1" y="5.099999237060547" transform="rotate(0)"><tspan id="SvgjsTspan1110" dy="16" x="69.5"><tspan id="SvgjsTspan1111" style="text-decoration:;">ViewResolver</tspan></tspan><tspan id="SvgjsTspan1112" dy="16" x="69.5"><tspan id="SvgjsTspan1113" style="text-decoration:;">视图解析器</tspan></tspan></text></g></g><g id="SvgjsG1114" transform="translate(306.59999084472656,383.8999996185303)"><path id="SvgjsPath1115" d="M 0 4Q 0 0 4 0L 75 0Q 79 0 79 4L 79 42.099998474121094Q 79 46.099998474121094 75 46.099998474121094L 4 46.099998474121094Q 0 46.099998474121094 0 42.099998474121094Z" stroke="rgba(50,50,50,1)" stroke-width="2" fill-opacity="1" fill="#ffe6cc"></path><g id="SvgjsG1116"><text id="SvgjsText1117" font-family="微软雅黑" text-anchor="middle" font-size="13px" width="59px" fill="#323232" font-weight="400" align="middle" anchor="middle" family="微软雅黑" size="13px" weight="400" font-style="" opacity="1" y="5.099999237060547" transform="rotate(0)"><tspan id="SvgjsTspan1118" dy="16" x="39.5"><tspan id="SvgjsTspan1119" style="text-decoration:;">View</tspan></tspan><tspan id="SvgjsTspan1120" dy="16" x="39.5"><tspan id="SvgjsTspan1121" style="text-decoration:;">视图</tspan></tspan></text></g></g><g id="SvgjsG1122"><path id="SvgjsPath1123" d="M497.59999084472656 170.99999809265137L497.59999084472656 190.94999885559082L795.5999908447266 190.94999885559082L795.5999908447266 234.89999961853027" stroke="#80ff00" stroke-width="2" fill="none" marker-end="url(#SvgjsMarker1124)"></path><rect id="SvgjsRect1126" width="91" height="16" x="613.0999908447266" y="182.94999885559082" fill="#ffffff"></rect><text id="SvgjsText1127" font-family="微软雅黑" text-anchor="middle" font-size="13px" width="91px" fill="#323232" font-weight="400" align="top" anchor="middle" family="微软雅黑" size="13px" weight="400" font-style="" opacity="1" y="180.99999885559083" transform="rotate(0)"><tspan id="SvgjsTspan1128" dy="16" x="658.5999908447266"><tspan id="SvgjsTspan1129" style="text-decoration:;">④处理器执行链</tspan></tspan></text></g><g id="SvgjsG1130"><path id="SvgjsPath1131" d="M832.5999908447266 284.99999809265137L832.5999908447266 331.99999809265137L832.5999908447266 331.99999809265137L832.5999908447266 378.99999809265137" stroke="#ffff00" stroke-width="2" fill="none" marker-end="url(#SvgjsMarker1132)"></path><rect id="SvgjsRect1134" width="39" height="16" x="813.0999908447266" y="323.99999809265137" fill="#ffffff"></rect><text id="SvgjsText1135" font-family="微软雅黑" text-anchor="middle" font-size="13px" width="39px" fill="#323232" font-weight="400" align="top" anchor="middle" family="微软雅黑" size="13px" weight="400" font-style="" opacity="1" y="322.0499980926514" transform="rotate(0)"><tspan id="SvgjsTspan1136" dy="16" x="832.5999908447266"><tspan id="SvgjsTspan1137" style="text-decoration:;">⑤执行</tspan></tspan></text></g><g id="SvgjsG1138"><path id="SvgjsPath1139" d="M757.5999908447266 378.99999809265137L757.5999908447266 331.99999809265137L757.5999908447266 331.99999809265137L757.5999908447266 284.99999809265137" stroke="#ffff00" stroke-width="2" fill="none" marker-end="url(#SvgjsMarker1140)"></path><rect id="SvgjsRect1142" width="109" height="16" x="703.0999908447266" y="323.99999809265137" fill="#ffffff"></rect><text id="SvgjsText1143" font-family="微软雅黑" text-anchor="middle" font-size="13px" width="109px" fill="#323232" font-weight="400" align="top" anchor="middle" family="微软雅黑" size="13px" weight="400" font-style="" opacity="1" y="322.0499980926514" transform="rotate(0)"><tspan id="SvgjsTspan1144" dy="16" x="757.5999908447266"><tspan id="SvgjsTspan1145" style="text-decoration:;">⑥ModelAndView</tspan></tspan></text></g><g id="SvgjsG1146"><path id="SvgjsPath1147" d="M763.5999908447266 234.99999809265137L763.5999908447266 216.49999809265137L465.59999084472656 216.49999809265137L465.59999084472656 171.99999809265137" stroke="#80ff00" stroke-width="2" fill="none" marker-end="url(#SvgjsMarker1148)"></path><rect id="SvgjsRect1150" width="109" height="16" x="547.0999908447266" y="208.49999809265137" fill="#ffffff"></rect><text id="SvgjsText1151" font-family="微软雅黑" text-anchor="middle" font-size="13px" width="109px" fill="#323232" font-weight="400" align="top" anchor="middle" family="微软雅黑" size="13px" weight="400" font-style="" opacity="1" y="206.54999809265138" transform="rotate(0)"><tspan id="SvgjsTspan1152" dy="16" x="601.5999908447266"><tspan id="SvgjsTspan1153" style="text-decoration:;">⑦ModelAndView</tspan></tspan></text></g><g id="SvgjsG1154"><path id="SvgjsPath1155" d="M436.59999084472656 171.99999809265137L436.59999084472656 277.99999809265137L565.5999908447266 277.99999809265137L565.5999908447266 383.99999809265137" stroke="#00ffff" stroke-width="2" fill="none" marker-end="url(#SvgjsMarker1156)"></path><rect id="SvgjsRect1158" width="109" height="16" x="446.59999084472656" y="269.99999809265137" fill="#ffffff"></rect><text id="SvgjsText1159" font-family="微软雅黑" text-anchor="middle" font-size="13px" width="109px" fill="#323232" font-weight="400" align="top" anchor="middle" family="微软雅黑" size="13px" weight="400" font-style="" opacity="1" y="268.0499980926514" transform="rotate(0)"><tspan id="SvgjsTspan1160" dy="16" x="501.09999084472656"><tspan id="SvgjsTspan1161" style="text-decoration:;">⑧ModelAndView</tspan></tspan></text></g><g id="SvgjsG1162"><path id="SvgjsPath1163" d="M520.5999908447266 383.99999809265137L520.5999908447266 301.24999809265137L412.59999084472656 301.24999809265137L412.59999084472656 172.49999809265137" stroke="#00ffff" stroke-width="2" fill="none" marker-end="url(#SvgjsMarker1164)"></path><rect id="SvgjsRect1166" width="43" height="16" x="422.09999084472656" y="293.24999809265137" fill="#ffffff"></rect><text id="SvgjsText1167" font-family="微软雅黑" text-anchor="middle" font-size="13px" width="43px" fill="#323232" font-weight="400" align="top" anchor="middle" family="微软雅黑" size="13px" weight="400" font-style="" opacity="1" y="291.2999980926514" transform="rotate(0)"><tspan id="SvgjsTspan1168" dy="16" x="443.59999084472656"><tspan id="SvgjsTspan1169" style="text-decoration:;">⑨View</tspan></tspan></text></g><g id="SvgjsG1170"><path id="SvgjsPath1171" d="M357.59999084472656 171.99999809265137L357.59999084472656 277.99999809265137L358.59999084472656 277.99999809265137L358.59999084472656 383.99999809265137" stroke="#ff00ff" stroke-width="2" fill="none" marker-end="url(#SvgjsMarker1172)"></path><rect id="SvgjsRect1174" width="65" height="16" x="325.59999084472656" y="269.99999809265137" fill="#ffffff"></rect><text id="SvgjsText1175" font-family="微软雅黑" text-anchor="middle" font-size="13px" width="65px" fill="#323232" font-weight="400" align="top" anchor="middle" family="微软雅黑" size="13px" weight="400" font-style="" opacity="1" y="268.0499980926514" transform="rotate(0)"><tspan id="SvgjsTspan1176" dy="16" x="358.09999084472656"><tspan id="SvgjsTspan1177" style="text-decoration:;">⑩调用执行</tspan></tspan></text></g><g id="SvgjsG1178"><path id="SvgjsPath1179" d="M518.5999908447266 129.99999809265137L613.5999908447266 129.99999809265137L613.5999908447266 129.99999809265137L708.5999908447266 129.99999809265137" stroke="#ff3333" stroke-width="2" fill="none" marker-end="url(#SvgjsMarker1180)"></path><rect id="SvgjsRect1182" width="39" height="16" x="594.0999908447266" y="121.99999809265137" fill="#ffffff"></rect><text id="SvgjsText1183" font-family="微软雅黑" text-anchor="middle" font-size="13px" width="39px" fill="#323232" font-weight="400" align="top" anchor="middle" family="微软雅黑" size="13px" weight="400" font-style="" opacity="1" y="120.04999809265136" transform="rotate(0)"><tspan id="SvgjsTspan1184" dy="16" x="613.5999908447266"><tspan id="SvgjsTspan1185" style="text-decoration:;">②请求</tspan></tspan></text></g><g id="SvgjsG1186"><path id="SvgjsPath1187" d="M323.59999084472656 383.99999809265137L323.59999084472656 277.99999809265137L323.59999084472656 277.99999809265137L323.59999084472656 171.99999809265137" stroke="#ff00ff" stroke-width="2" fill="none" marker-end="url(#SvgjsMarker1188)"></path></g><g id="SvgjsG1190" transform="translate(227.59999084472656,188.89999961853027)"><path id="SvgjsPath1191" d="M 0 0L 44 0L 44 20L 0 20Z" stroke="none" fill="none"></path><g id="SvgjsG1192"><text id="SvgjsText1193" font-family="微软雅黑" text-anchor="middle" font-size="13px" width="44px" fill="#323232" font-weight="400" align="middle" anchor="middle" family="微软雅黑" size="13px" weight="400" font-style="" opacity="1" y="0.050000000000000044" transform="rotate(0)"><tspan id="SvgjsTspan1194" dy="16" x="22"><tspan id="SvgjsTspan1195" style="text-decoration:;">①请求</tspan></tspan></text></g></g></svg>